<svg viewBox="0 0 893 981" fill="none" xmlns="http://www.w3.org/2000/svg">
	<path
		d="M874.394 375.725C935.38 405.105 800.498 306.281 804.727 306.281C809.178 306.281 756.427 272.671 747.969 230.604L851.245 175.627C851.245 175.627 575.471 255.755 581.703 255.755C587.935 255.755 463.959 259.984 463.959 259.984C463.959 259.984 376.709 213.466 379.602 196.772C383.831 173.624 518.491 -2.43536 487.108 3.12909C282.781 38.9642 116.515 224.817 112.286 255.755C108.057 287.362 148.121 306.281 148.121 306.281C148.121 306.281 19.9159 344.119 23.9224 403.102L3 428.253C3 428.253 32.3803 424.247 32.3803 426.25C32.3803 428.253 148.121 466.314 148.121 466.314C148.121 466.314 153.24 549.559 171.269 575.6C343.99 823.998 472.417 982.028 552.323 977.799L434.357 584.058L508.03 445.169L482.879 419.795C482.879 419.795 571.242 365.264 609.08 373.499C609.08 373.499 868.607 373.054 874.394 375.725Z"
		fill="black" stroke="black" stroke-width="5.07009" stroke-miterlimit="10"
		stroke-linejoin="round" />
</svg>